# xmcd
#
# Track frame offsets: 
#        150
#        12924
#        25912
#        37585
#        50187
#        63979
#        75838
#        89752
#        102537
#        113258
#        124065
#        137459
#        151313
#        163848
#        176854
#        188223
#        198413
#        210566
#        223307
#        236508
#        251345
#        265280
#        277454
#        290294
#        304232
#
# Disc length: 4201 seconds
#
# Revision: 2
# Processed by: cddbd v1.5.2PL0 Copyright (c) Steve Scherf et al.
# Submitted via: ExactAudioCopyFreeDBPlugin 1.0
#
DISCID=6a106719
DTITLE=Various Artist - The Willie Dixon Story: The Songwriter
DYEAR=2012
DGENRE=Blues
TTITLE0=Muddy Waters - I'm Your Hoochle Coochle Man
TTITLE1=Willie Mabon - The Seventh Son
TTITLE2=Little Walter - My Babe
TTITLE3=Howlin' Wolf - Spoonful
TTITLE4=Buddy Guy - Sit And Cry (The Blues)
TTITLE5=Charles Clark - Hidden Charms
TTITLE6=Muddy Waters - Close To You
TTITLE7=Bo Diddley - Pretty Thing
TTITLE8=Junior Wells - Cha Cha Cha In Blue
TTITLE9=Betty Everett - Killer Diller
TTITLE10=Lowell Fulson - Do Me Right
TTITLE11=Muddy Waters - I'm Ready
TTITLE12=Little Walter - Mellow Down Easy
TTITLE13=Howlin' Wolf - Back Door Man
TTITLE14=Bo Diddley - Diddy Wah Diddy
TTITLE15=Elmore James - I Can't Hold Out (Take To Me Baby)
TTITLE16=Lee Jackson - Fishin' In My Pond
TTITLE17=Muddy Waters - Just Make Love To Me
TTITLE18=Howlin' Wolf - Evil
TTITLE19=Eddie Boyd - Third Degree
TTITLE20=Lowell Fulson - Tollin' Bells
TTITLE21=Junior Wells - Two Headed Woman
TTITLE22=Jimmy Witherspoon - When the Lights Go Out
TTITLE23=Muddy Waters - Young Fashioned Ways
TTITLE24=Howlin' Wolf - Wang Dang Doodle
EXTD=
EXTT0=
EXTT1=
EXTT2=
EXTT3=
EXTT4=
EXTT5=
EXTT6=
EXTT7=
EXTT8=
EXTT9=
EXTT10=
EXTT11=
EXTT12=
EXTT13=
EXTT14=
EXTT15=
EXTT16=
EXTT17=
EXTT18=
EXTT19=
EXTT20=
EXTT21=
EXTT22=
EXTT23=
EXTT24=
PLAYORDER=
